<svg xmlns="http://www.w3.org/2000/svg" width="52.77" height="60" viewBox="0 0 52.77 60"><defs><style>.a{fill:#36b37e;}</style></defs><g transform="translate(-30.849)"><g transform="translate(30.849 2.238)"><g transform="translate(0)"><path class="a" d="M79.614,40.521,59.732,20.639a5.272,5.272,0,0,0-8.1,6.678l-.028.138A36.785,36.785,0,0,1,41.514,46.313l-9.119,9.119a5.269,5.269,0,0,0,0,7.456l4.97,4.97a5.269,5.269,0,0,0,7.456,0l1.243-1.243,8.7,8.7a5.272,5.272,0,1,0,7.456-7.456L58.49,64.131l1.243-1.243a5.269,5.269,0,0,0,0-7.456l-.844-.845A36.791,36.791,0,0,1,72.8,48.647l.14-.028a5.278,5.278,0,0,0,6.676-.642h0A5.278,5.278,0,0,0,79.614,40.521ZM42.336,65.373a1.757,1.757,0,0,1-2.485,0L34.88,60.4a1.756,1.756,0,0,1,0-2.485l8.7-8.7,7.456,7.456Zm17.4,4.97a1.757,1.757,0,1,1-2.485,2.485l-8.7-8.7,2.485-2.485ZM53.519,59.16c.528-.528,1.319-1.337,2.567-2.4l1.161,1.161a1.756,1.756,0,0,1,0,2.485L56,61.645Zm.075-4.9-7.605-7.605a40.243,40.243,0,0,0,8.556-16.3L69.89,45.709A40.241,40.241,0,0,0,53.594,54.265Zm23.535-8.773a1.756,1.756,0,0,1-2.485,0L54.762,25.61a1.757,1.757,0,0,1,2.485-2.485L77.129,43.006A1.76,1.76,0,0,1,77.129,45.492Z" transform="translate(-30.849 -19.098)"/></g></g><g transform="translate(39.336 38.058)"><g transform="translate(0)"><path class="a" d="M108.751,325.277a1.757,1.757,0,0,0-2.485,0l-2.485,2.485a1.757,1.757,0,1,0,2.485,2.485l2.485-2.485A1.757,1.757,0,0,0,108.751,325.277Z" transform="translate(-103.266 -324.762)"/></g></g><g transform="translate(66.046)"><path class="a" d="M332.951,0a1.757,1.757,0,0,0-1.757,1.757V5.272a1.757,1.757,0,0,0,3.515,0V1.757A1.757,1.757,0,0,0,332.951,0Z" transform="translate(-331.194)"/></g><g transform="translate(76.59 14.058)"><g transform="translate(0)"><path class="a" d="M426.441,119.966h-3.515a1.757,1.757,0,1,0,0,3.515h3.515a1.757,1.757,0,0,0,0-3.515Z" transform="translate(-421.169 -119.966)"/></g></g><g transform="translate(73.075 3.515)"><path class="a" d="M397.693,30.506a1.757,1.757,0,0,0-2.485,0l-3.515,3.515a1.757,1.757,0,0,0,2.485,2.485l3.515-3.515A1.757,1.757,0,0,0,397.693,30.506Z" transform="translate(-391.178 -29.991)"/></g></g></svg>