<svg xmlns="http://www.w3.org/2000/svg" width="67.593" height="60" viewBox="0 0 67.593 60"><defs><style>.a{fill:#36b37e;}.b{fill:#fff;}.c{fill:#78ffc6;}</style></defs><g transform="translate(0 0.009)"><path class="a" d="M67.137,13.215a2.4,2.4,0,0,0-1.939-1H16.568L13.941,1.805a2.4,2.4,0,0,0-2.4-1.813H2.4A2.4,2.4,0,0,0,2.4,4.8H9.739L20.881,48.976A2.4,2.4,0,0,0,23.2,50.789h30a2.4,2.4,0,1,0,0-4.805H25.1l-1.11-4.4H57.2a2.4,2.4,0,0,0,2.276-1.658l7.995-24.562A2.4,2.4,0,0,0,67.137,13.215ZM55.461,36.794H22.778l-5-19.769H61.9Z"/><circle class="b" cx="4.903" cy="4.903" r="4.903" transform="translate(18.002 47.777)"/><path class="c" d="M125.553,358.585a7.293,7.293,0,1,1,7.293-7.293h0A7.308,7.308,0,0,1,125.553,358.585Zm0-9.835a2.5,2.5,0,1,0,2.5,2.5h0a2.5,2.5,0,0,0-2.5-2.459v-.042Z" transform="translate(-102.648 -298.594)"/><circle class="b" cx="4.903" cy="4.903" r="4.903" transform="translate(48.296 47.777)"/><path class="c" d="M355.118,358.585a7.293,7.293,0,1,1,7.307-7.293A7.292,7.292,0,0,1,355.118,358.585Zm0-9.835a2.5,2.5,0,1,0,2.5,2.5h0a2.5,2.5,0,0,0-2.5-2.459Z" transform="translate(-301.919 -298.594)"/></g></svg>