<svg xmlns="http://www.w3.org/2000/svg" width="60" height="60" viewBox="0 0 60 60"><defs><style>.a{fill:#36b37e;}</style></defs><path class="a" d="M25.781,0H2.344A2.344,2.344,0,0,0,0,2.344V25.781a2.344,2.344,0,0,0,2.344,2.344H25.781a2.344,2.344,0,0,0,2.344-2.344V2.344A2.344,2.344,0,0,0,25.781,0ZM23.437,23.437H4.687V4.687h18.75Zm35.116,8.616A2.344,2.344,0,0,0,56,32.561L32.561,56a2.344,2.344,0,0,0,1.657,4H57.656A2.344,2.344,0,0,0,60,57.656V34.219a2.343,2.343,0,0,0-1.447-2.165ZM55.312,55.312H39.877L55.312,39.877ZM45.937,28.125A14.062,14.062,0,1,0,31.875,14.062,14.078,14.078,0,0,0,45.937,28.125Zm0-23.437a9.375,9.375,0,1,1-9.375,9.375A9.385,9.385,0,0,1,45.937,4.688Zm-18.5,31.189L17.377,45.937,27.438,56a2.344,2.344,0,1,1-3.314,3.315L14.062,49.252,4,59.314A2.344,2.344,0,0,1,.687,56L10.748,45.937.687,35.876A2.344,2.344,0,0,1,4,32.562L14.062,42.623,24.124,32.561a2.344,2.344,0,0,1,3.314,3.315Zm0,0" transform="translate(0)"/></svg>