<svg xmlns="http://www.w3.org/2000/svg" width="60" height="60" viewBox="0 0 60 60"><defs><style>.a{fill:#36b37e;}.b{fill:#78ffc6;}</style></defs><g transform="translate(211.427 -1527)"><g transform="translate(-211.427 1527)"><path class="a" d="M52.5,60H7.5A7.509,7.509,0,0,1,0,52.5V7.5A7.51,7.51,0,0,1,7.5,0h45A7.509,7.509,0,0,1,60,7.5v45A7.508,7.508,0,0,1,52.5,60ZM7.5,5A2.5,2.5,0,0,0,5,7.5v45A2.5,2.5,0,0,0,7.5,55h45A2.5,2.5,0,0,0,55,52.5V7.5A2.5,2.5,0,0,0,52.5,5Z"/><path class="b" d="M109.161,111.751a2.631,2.631,0,0,1-1.775-.725,2.89,2.89,0,0,1-.525-.825,2.354,2.354,0,0,1,0-1.9,2.889,2.889,0,0,1,.525-.825,2.587,2.587,0,0,1,.825-.525,2.5,2.5,0,0,1,1.9,0,2.587,2.587,0,0,1,.825.525,2.5,2.5,0,0,1-1.774,4.276Z" transform="translate(-94.161 -94.251)"/><path class="b" d="M214.5,111.669h-20a2.5,2.5,0,0,1,0-5h20a2.5,2.5,0,0,1,0,5Z" transform="translate(-169.5 -94.17)"/><path class="b" d="M109.161,239.76a2.483,2.483,0,0,1-1.775-.725,2.922,2.922,0,0,1-.525-.825,2.48,2.48,0,0,1-.2-.95,2.969,2.969,0,0,1,.05-.475,1.5,1.5,0,0,1,.15-.475,1.923,1.923,0,0,1,.225-.45l.3-.375a2.89,2.89,0,0,1,.825-.525,2.5,2.5,0,0,1,1.9,0,2.342,2.342,0,0,1,.825.525,4,4,0,0,1,.3.375,1.923,1.923,0,0,1,.225.45,1.5,1.5,0,0,1,.15.475,3.108,3.108,0,0,1,.05.475,2.485,2.485,0,0,1-.2.95,2.923,2.923,0,0,1-.525.825A2.479,2.479,0,0,1,109.161,239.76Z" transform="translate(-94.161 -207.26)"/><path class="b" d="M214.5,239.669h-20a2.5,2.5,0,0,1,0-5h20a2.5,2.5,0,0,1,0,5Z" transform="translate(-169.5 -207.17)"/><path class="b" d="M109.161,367.892a2.475,2.475,0,0,1-2.3-3.451,2.587,2.587,0,0,1,.525-.825,2.5,2.5,0,0,1,4.275,1.775,2.477,2.477,0,0,1-2.5,2.5Z" transform="translate(-94.161 -320.393)"/><path class="b" d="M214.5,367.669h-20a2.5,2.5,0,0,1,0-5h20a2.5,2.5,0,0,1,0,5Z" transform="translate(-169.5 -320.17)"/></g></g></svg>