<svg xmlns="http://www.w3.org/2000/svg" width="60.001" height="60" viewBox="0 0 60.001 60"><defs><style>.a{fill:#36b37e;}.b{fill:#fff;}.c{fill:#1138f7;}.d{fill:#78ffc6;}</style></defs><g transform="translate(0.001)"><path class="a" d="M57.509,60h-55a2.5,2.5,0,0,1-2.5-2.5V25a2.5,2.5,0,0,1,.918-1.935l27.5-22.5a2.5,2.5,0,0,1,3.168,0l27.5,22.5A2.509,2.509,0,0,1,60.01,25V57.5A2.5,2.5,0,0,1,57.509,60ZM5.01,55h50V26.186l-25-20.455-25,20.455Z" transform="translate(-0.01)"/><path class="b" d="M109.009,102.84V85.34h-45v17.5" transform="translate(-56.51 -75.339)"/><g transform="translate(-0.001 7.501)"><path class="c" d="M90.179,86.51a2.5,2.5,0,0,1-2.5-2.5v-15h-40v15a2.5,2.5,0,0,1-5,0V66.51a2.5,2.5,0,0,1,2.5-2.5h45a2.5,2.5,0,0,1,2.5,2.5v17.5A2.5,2.5,0,0,1,90.179,86.51Z" transform="translate(-37.678 -64.01)"/><path class="a" d="M57.5,229.519a2.509,2.509,0,0,1-1.27-.347l-55-32.5a2.5,2.5,0,1,1,2.545-4.3l55,32.5a2.5,2.5,0,0,1-1.275,4.65Z" transform="translate(0.001 -177.02)"/><path class="a" d="M237.17,213.247a2.5,2.5,0,0,1-1.275-4.653l27.5-16.25a2.5,2.5,0,1,1,2.543,4.305l-27.5,16.251A2.494,2.494,0,0,1,237.17,213.247Z" transform="translate(-207.167 -176.998)"/></g><path class="d" d="M64.01,85.34h45v17.5L86.51,116.59,64.01,102.84Z" transform="translate(-56.51 -75.339)"/><path class="a" d="M67.67,100.259a2.523,2.523,0,0,1-1.3-.364l-22.5-13.749a2.5,2.5,0,0,1-1.2-2.135V66.51a2.5,2.5,0,0,1,2.5-2.5h45a2.5,2.5,0,0,1,2.5,2.5v17.5a2.51,2.51,0,0,1-1.2,2.135l-22.5,13.749A2.461,2.461,0,0,1,67.67,100.259Zm-20-17.652,20,12.222,20-12.222V69.01h-40Z" transform="translate(-37.671 -56.509)"/></g></svg>