<?xml version="1.0" encoding="UTF-8"?>
<svg width="40px" height="41px" viewBox="0 0 40 41" version="1.1" xmlns="http://www.w3.org/2000/svg" xmlns:xlink="http://www.w3.org/1999/xlink">
    <!-- Generator: sketchtool 55.2 (78181) - https://sketchapp.com -->
    <title>038CC165-6AAF-4661-9FFB-5A7F8A7A881F</title>
    <desc>Created with sketchtool.</desc>
    <g id="Page-1" stroke="none" stroke-width="1" fill="none" fill-rule="evenodd">
        <g id="Home" transform="translate(-200.000000, -5988.000000)" fill="#5E6C84" fill-rule="nonzero">
            <g id="Group-40" transform="translate(0.000000, 5891.687500)">
                <g id="Group-13">
                    <g id="Group-37" transform="translate(200.000000, 95.500000)">
                        <g id="Group-36" transform="translate(0.000000, 0.500000)">
                            <g id="logo" transform="translate(0.000000, 0.500000)">
                                <g id="Group-5" transform="translate(0.000000, 0.357544)">
                                    <path d="M9.90780158,-9.23705556e-14 L39.6312063,-9.23705556e-14 C39.6312063,5.47238638 35.1953013,9.90780158 29.7234047,9.90780158 L9.90780158,9.90780158 L9.90780158,29.7243844 L24.7697489,29.7243844 L24.7697489,39.6316961 L9.90780158,39.6316961 C4.43590503,39.6316961 7.10542736e-15,35.1957911 7.10542736e-15,29.7243844 L7.10542736e-15,9.90780158 C7.10542736e-15,4.43590503 4.43590503,-9.23705556e-14 9.90780158,-9.23705556e-14 Z M14.8619473,14.8619473 L29.7234047,14.8619473 C35.1953013,14.8619473 39.6312063,19.2978523 39.6312063,24.7697489 L39.6312063,39.632186 C34.1593098,39.632186 29.7234047,35.1962809 29.7234047,29.7243844 L29.7234047,24.7697489 L14.8619473,24.7697489 L14.8619473,14.8619473 Z" id="Combined-Shape"></path>
                                </g>
                            </g>
                        </g>
                    </g>
                </g>
            </g>
        </g>
    </g>
</svg>