<?xml version="1.0" encoding="UTF-8"?>
<svg width="33px" height="33px" viewBox="0 0 33 33" version="1.1" xmlns="http://www.w3.org/2000/svg" xmlns:xlink="http://www.w3.org/1999/xlink">
    <!-- Generator: sketchtool 55.2 (78181) - https://sketchapp.com -->
    <title>4AD863C7-5747-448B-B578-C9613DC4FA10</title>
    <desc>Created with sketchtool.</desc>
    <g id="Page-1" stroke="none" stroke-width="1" fill="none" fill-rule="evenodd">
        <g id="Home" transform="translate(-200.000000, -6133.000000)" fill="#5E6C84" fill-rule="nonzero">
            <g id="Group-40" transform="translate(0.000000, 5891.687500)">
                <g id="Group-13">
                    <g id="Group-37" transform="translate(200.000000, 95.500000)">
                        <g id="Group-36" transform="translate(0.000000, 0.500000)">
                            <g id="facebook" transform="translate(0.707679, 47.500000)">
                                <g id="Group-39" transform="translate(0.000000, 98.500000)">
                                    <path d="M-1.77635684e-15,-5.91526828e-13 L-1.77635684e-15,31.9810526 L17.0318596,31.9810526 L17.0318596,19.6274386 L12.8683509,19.6274386 L12.8683509,14.5843509 L17.0318596,14.5843509 L17.0318596,10.3490526 C17.0318596,7.26884211 19.5288421,4.77185965 22.6090526,4.77185965 L26.9616842,4.77185965 L26.9616842,9.30673684 L23.8471579,9.30673684 C22.8684211,9.30673684 22.0749474,10.1002105 22.0749474,11.0789474 L22.0749474,14.5844211 L26.8834386,14.5844211 L26.2188772,19.6275088 L22.0749474,19.6275088 L22.0749474,31.9810526 L31.9810526,31.9810526 L31.9810526,-5.91526828e-13 L-1.77635684e-15,-5.91526828e-13 Z" id="Path"></path>
                                </g>
                            </g>
                        </g>
                    </g>
                </g>
            </g>
        </g>
    </g>
</svg>