<?xml version="1.0" encoding="UTF-8"?>
<svg width="48px" height="49px" viewBox="0 0 48 49" version="1.1" xmlns="http://www.w3.org/2000/svg" xmlns:xlink="http://www.w3.org/1999/xlink">
    <!-- Generator: sketchtool 55.2 (78181) - https://sketchapp.com -->
    <title>10B05430-BC40-44E3-A2C6-8D75BCD84BB3</title>
    <desc>Created with sketchtool.</desc>
    <g id="Page-1" stroke="none" stroke-width="1" fill="none" fill-rule="evenodd">
        <g id="Home" transform="translate(-1163.000000, -6024.000000)">
            <g id="Group-40" transform="translate(0.000000, 5891.687500)">
                <g id="Group-13">
                    <g id="Group-37" transform="translate(200.000000, 95.500000)">
                        <g id="Group-41" transform="translate(835.000000, 1.000000)">
                            <g id="Group-35" transform="translate(0.000000, 36.000000)">
                                <g id="ic_canada" transform="translate(128.000000, 0.000000)">
                                    <g id="canada">
                                        <g id="Group" fill-rule="nonzero">
                                            <path d="M47.172375,39.724125 L0.827625,39.724125 C0.37059375,39.724125 0,39.353625 0,38.8965 L0,9.10340625 C0,8.646375 0.3705,8.27578125 0.827625,8.27578125 L47.1724688,8.27578125 C47.6295,8.27578125 48.0000937,8.64628125 48.0000937,9.10340625 L48.0000937,38.8965 C48.0000937,39.353625 47.6295,39.724125 47.172375,39.724125 Z" id="Path" fill="#F5F5F5"></path>
                                            <rect id="Rectangle" fill="#FFFFFF" x="10.75875" y="0" width="26.4825" height="48"></rect>
                                        </g>
                                        <g id="Group" fill="#FF4B55" fill-rule="nonzero">
                                            <rect id="Rectangle" x="0" y="0" width="10.75875" height="48"></rect>
                                            <rect id="Rectangle" x="37.24125" y="0" width="10.75875" height="48"></rect>
                                            <path d="M29.0221875,27.63375 L33.9330937,24.8275312 L32.8062187,24.2640937 C32.4901875,24.1060313 32.30925,23.7647812 32.3560313,23.4144375 L32.7226875,20.6655 L30.6435938,21.270375 C30.1843125,21.4039687 29.7076875,21.1215937 29.604375,20.6545312 L29.40525,19.7545312 L27.4530938,22.0392187 C27.1825312,22.3559062 26.6669062,22.1139375 26.7375,21.7035 L27.571125,16.855875 L26.2947188,17.205 C25.921875,17.307 25.5282188,17.1373125 25.34625,16.7963437 L24.0021563,14.2771875 L24.0021563,14.2735312 L24.0012187,14.2754062 L24.0001875,14.2735312 L24.0001875,14.2771875 L22.6560938,16.7963437 C22.474125,17.1373125 22.0804688,17.307 21.707625,17.205 L20.4312187,16.855875 L21.2648438,21.7035 C21.3354375,22.1140313 20.8198125,22.3559063 20.54925,22.0392187 L18.5970937,19.7545312 L18.3979688,20.6545312 C18.2946562,21.1215937 17.8180313,21.4039687 17.35875,21.270375 L15.2795625,20.6655 L15.6462188,23.4144375 C15.6929063,23.7646875 15.5120625,24.1060313 15.1960313,24.2640937 L14.0691563,24.8275312 L18.9800625,27.63375 C19.48875,27.924375 19.7115937,28.5409687 19.5064688,29.0896875 L19.0866563,30.2125312 L23.294625,29.8532812 C23.5275,29.8334062 23.7256875,30.0208125 23.7188437,30.2544375 L23.586375,34.7584687 L24.414,34.7584687 L24.2815313,30.25425 C24.2746875,30.020625 24.472875,29.833125 24.70575,29.8530937 L28.9156875,30.2125312 L28.495875,29.0896875 C28.2905625,28.5410625 28.5135,27.9244687 29.0221875,27.63375 Z" id="Path"></path>
                                        </g>
                                    </g>
                                </g>
                            </g>
                        </g>
                    </g>
                </g>
            </g>
        </g>
    </g>
</svg>