<?xml version="1.0" encoding="UTF-8"?>
<svg width="48px" height="49px" viewBox="0 0 48 49" version="1.1" xmlns="http://www.w3.org/2000/svg" xmlns:xlink="http://www.w3.org/1999/xlink">
    <!-- Generator: sketchtool 55.2 (78181) - https://sketchapp.com -->
    <title>6A86E249-ED4A-4109-A50C-C83AFCE39008</title>
    <desc>Created with sketchtool.</desc>
    <g id="Page-1" stroke="none" stroke-width="1" fill="none" fill-rule="evenodd">
        <g id="Home" transform="translate(-1035.000000, -6024.000000)">
            <g id="Group-40" transform="translate(0.000000, 5891.687500)">
                <g id="Group-13">
                    <g id="Group-37" transform="translate(200.000000, 95.500000)">
                        <g id="Group-41" transform="translate(835.000000, 1.000000)">
                            <g id="Group-35" transform="translate(0.000000, 36.000000)">
                                <g id="ic_india">
                                    <g id="india">
                                        <rect id="Rectangle" fill="#FAB446" fill-rule="nonzero" x="0" y="0.02615625" width="48" height="15.9825"></rect>
                                        <rect id="Rectangle" fill="#73AF00" fill-rule="nonzero" x="0" y="31.9913437" width="48" height="15.9825"></rect>
                                        <rect id="Rectangle" fill="#FFFFFF" fill-rule="nonzero" x="0" y="16.0088438" width="48" height="15.9825"></rect>
                                        <g id="Group" transform="translate(18.468750, 18.468750)" fill="#41479B" fill-rule="nonzero">
                                            <path d="M5.53125,11.0110313 C2.50978125,11.0110313 0.05175,8.553 0.05175,5.53153125 C0.05175,2.5100625 2.50978125,0.05203125 5.53125,0.05203125 C8.55271875,0.05203125 11.01075,2.5100625 11.01075,5.53153125 C11.01075,8.553 8.55271875,11.0110313 5.53125,11.0110313 Z M5.53125,1.07146875 C3.07171875,1.07146875 1.0711875,3.072 1.0711875,5.53153125 C1.0711875,7.9910625 3.07171875,9.99159375 5.53125,9.99159375 C7.99078125,9.99159375 9.9913125,7.9910625 9.9913125,5.53153125 C9.9913125,3.072 7.99078125,1.07146875 5.53125,1.07146875 Z" id="Shape"></path>
                                            <circle id="Oval" cx="5.53125" cy="5.53134375" r="1"></circle>
                                            <polygon id="Path" points="5.53125 5.62471875 3.95259375 5.78409375 0.56146875 5.62471875 0.56146875 5.43834375 3.95259375 5.27896875 5.53125 5.43834375"></polygon>
                                            <polygon id="Path" points="5.53125 5.62471875 7.10990625 5.78409375 10.5010313 5.62471875 10.5010313 5.43834375 7.10990625 5.27896875 5.53125 5.43834375"></polygon>
                                            <polygon id="Path" points="5.4380625 5.53153125 5.2786875 3.952875 5.4380625 0.56175 5.6244375 0.56175 5.7838125 3.952875 5.6244375 5.53153125"></polygon>
                                            <polygon id="Path" points="5.4380625 5.53153125 5.2786875 7.1101875 5.4380625 10.5013125 5.6244375 10.5013125 5.7838125 7.1101875 5.6244375 5.53153125"></polygon>
                                            <polygon id="Path" points="5.46534375 5.5974375 4.236375 4.59384375 1.95121875 2.08321875 2.0829375 1.9515 4.5935625 4.23665625 5.59715625 5.465625"></polygon>
                                            <polygon id="Path" points="5.46534375 5.5974375 6.4689375 6.82640625 8.9795625 9.1115625 9.11128125 8.97984375 6.826125 6.46921875 5.59715625 5.465625"></polygon>
                                            <polygon id="Path" points="5.46534375 5.465625 6.4689375 4.23665625 8.9795625 1.9515 9.11128125 2.08321875 6.826125 4.59384375 5.59715625 5.5974375"></polygon>
                                            <polygon id="Path" points="5.46534375 5.465625 4.236375 6.46921875 1.95121875 8.97984375 2.0829375 9.1115625 4.5935625 6.82640625 5.59715625 5.5974375"></polygon>
                                            <polygon id="Path" points="5.566875 5.61759375 4.1694375 6.369 0.975375 7.5195 0.904125 7.34728125 3.976125 5.9023125 5.495625 5.44546875"></polygon>
                                            <polygon id="Path" points="5.566875 5.61759375 7.086375 5.16075 10.158375 3.71578125 10.087125 3.5435625 6.8930625 4.6940625 5.495625 5.44546875"></polygon>
                                            <polygon id="Path" points="5.4451875 5.56715625 4.69378125 4.16971875 3.54328125 0.97565625 3.7155 0.90440625 5.16046875 3.97640625 5.6173125 5.49590625"></polygon>
                                            <polygon id="Path" points="5.4451875 5.56715625 5.90203125 7.08665625 7.347 10.1586562 7.51921875 10.0874062 6.36871875 6.89334375 5.6173125 5.49590625"></polygon>
                                            <polygon id="Path" points="5.495625 5.61759375 3.976125 5.16075 0.904125 3.71578125 0.975375 3.5435625 4.1694375 4.6940625 5.566875 5.44546875"></polygon>
                                            <polygon id="Path" points="5.495625 5.61759375 6.8930625 6.369 10.087125 7.5195 10.158375 7.34728125 7.086375 5.9023125 5.566875 5.44546875"></polygon>
                                            <polygon id="Path" points="5.4451875 5.49590625 5.90203125 3.97640625 7.347 0.90440625 7.51921875 0.97565625 6.36871875 4.16971875 5.6173125 5.56715625"></polygon>
                                            <polygon id="Path" points="5.4451875 5.49590625 4.69378125 6.89334375 3.54328125 10.0874062 3.7155 10.1586562 5.16046875 7.08665625 5.6173125 5.56715625"></polygon>
                                        </g>
                                        <circle id="Oval" fill="#F5F5F5" fill-rule="nonzero" cx="24" cy="24.0000937" r="1"></circle>
                                        <circle id="Oval" fill="#41479B" fill-rule="nonzero" cx="24" cy="24.0000938" r="1"></circle>
                                    </g>
                                </g>
                            </g>
                        </g>
                    </g>
                </g>
            </g>
        </g>
    </g>
</svg>