<?xml version="1.0" encoding="UTF-8"?>
<svg width="48px" height="49px" viewBox="0 0 48 49" version="1.1" xmlns="http://www.w3.org/2000/svg" xmlns:xlink="http://www.w3.org/1999/xlink">
    <!-- Generator: sketchtool 55.2 (78181) - https://sketchapp.com -->
    <title>C7FE57E8-3160-4679-83C4-3B17E49A7BCF</title>
    <desc>Created with sketchtool.</desc>
    <g id="Page-1" stroke="none" stroke-width="1" fill="none" fill-rule="evenodd">
        <g id="Home" transform="translate(-1099.000000, -6024.000000)">
            <g id="Group-40" transform="translate(0.000000, 5891.687500)">
                <g id="Group-13">
                    <g id="Group-37" transform="translate(200.000000, 95.500000)">
                        <g id="Group-41" transform="translate(835.000000, 1.000000)">
                            <g id="Group-35" transform="translate(0.000000, 36.000000)">
                                <g id="ic_qatar" transform="translate(64.000000, 0.000000)">
                                    <g id="qatar">
                                        <rect id="Rectangle" fill="#FFFFFF" fill-rule="nonzero" x="9.35672515e-05" y="0" width="22.3925146" height="47.9064327"></rect>
                                        <path d="M47.9065263,0 L12.2563743,0 C12.2896842,0 12.322807,0.00495906433 12.3546199,0.0147836257 L19.9788538,2.34442105 C20.2964211,2.44135673 20.2961404,2.89104094 19.9785731,2.98788304 L13.3613099,5.00266667 C13.0436491,5.09950877 13.043462,5.54900585 13.3610292,5.64612865 L19.9789474,7.6685848 C20.2965146,7.76552047 20.2962339,8.21520468 19.9786667,8.31185965 L13.3613099,10.3268304 C13.0436491,10.4236725 13.043462,10.8731696 13.3610292,10.9702924 L19.9789474,12.9927485 C20.2965146,13.0896842 20.2962339,13.5393684 19.9786667,13.6360234 L13.3633684,15.6500585 C13.0455205,15.7469942 13.0455205,16.1968655 13.3633684,16.293614 L19.9786667,18.3077427 C20.2963275,18.4045848 20.2965146,18.8540819 19.9789474,18.9512047 L13.3610292,20.9736608 C13.043462,21.0707836 13.0437427,21.5204678 13.3613099,21.6171228 L19.9786667,23.6319064 C20.2963275,23.7285614 20.2965146,24.1782456 19.9789474,24.2753684 L13.3610292,26.2978246 C13.043462,26.3949474 13.0437427,26.8444444 13.3613099,26.9412865 L19.9786667,28.9560702 C20.2963275,29.0527251 20.2965146,29.5024094 19.9789474,29.599345 L13.3610292,31.6218012 C13.043462,31.718924 13.0437427,32.1686082 13.3613099,32.2652632 L19.9785731,34.2802339 C20.2962339,34.3768889 20.2964211,34.8265731 19.9788538,34.9235088 L13.3609357,36.9457778 C13.0433684,37.0429006 13.0436491,37.4923977 13.3612164,37.5892398 L19.9766082,39.6037427 C20.2943626,39.7003977 20.2943626,40.1503626 19.9766082,40.2470175 L13.3612164,42.2615205 C13.0435556,42.3581754 13.0433684,42.8078596 13.3609357,42.9047953 L19.9788538,44.9272515 C20.2964211,45.0241871 20.2961404,45.4738713 19.9785731,45.5705263 L12.3543392,47.8920234 C12.3226199,47.9017544 12.2895906,47.9066199 12.2563743,47.9066199 L47.9065263,47.9066199 L47.9065263,0 L47.9065263,0 Z" id="Path" fill="#873250" fill-rule="nonzero"></path>
                                    </g>
                                </g>
                            </g>
                        </g>
                    </g>
                </g>
            </g>
        </g>
    </g>
</svg>