<?xml version="1.0" encoding="UTF-8"?>
<svg width="33px" height="33px" viewBox="0 0 33 33" version="1.1" xmlns="http://www.w3.org/2000/svg" xmlns:xlink="http://www.w3.org/1999/xlink">
    <!-- Generator: sketchtool 55.2 (78181) - https://sketchapp.com -->
    <title>C478FCEA-A0D3-4201-B3A1-D00015BA6A12</title>
    <desc>Created with sketchtool.</desc>
    <g id="Page-1" stroke="none" stroke-width="1" fill="none" fill-rule="evenodd">
        <g id="Home" transform="translate(-286.000000, -6133.000000)" fill="#5E6C84" fill-rule="nonzero">
            <g id="Group-40" transform="translate(0.000000, 5891.687500)">
                <g id="Group-13">
                    <g id="Group-37" transform="translate(200.000000, 95.500000)">
                        <g id="Group-36" transform="translate(0.000000, 0.500000)">
                            <g id="facebook" transform="translate(0.707679, 47.500000)">
                                <g id="Group-39" transform="translate(0.000000, 98.500000)">
                                    <path d="M85.3333333,-7.10542736e-15 L117.314456,-7.10542736e-15 L117.314456,31.9811228 L85.3333333,31.9811228 L85.3333333,-7.10542736e-15 Z M92.86,4.8571922 C91.3774737,4.85607018 90.1647017,6.05747368 90.1647017,7.53010526 C90.1644211,9.04849123 91.4168421,10.238807 92.8419649,10.2099649 C94.2470175,10.2434386 95.5261754,9.08168421 95.5296904,7.5402807 C95.5328421,6.06821053 94.3247719,4.85838596 92.86,4.8571922 Z M94.4162105,27.1207719 C94.8235088,27.1207719 95.153614,26.7905965 95.1536842,26.3833684 L95.1536842,12.9950877 C95.1536842,12.5877895 94.8235088,12.257614 94.4162105,12.257614 L91.2778947,12.257614 C90.8705965,12.257614 90.5404211,12.5877895 90.5404211,12.9950877 L90.5404211,26.3832982 C90.5404211,26.7905965 90.8705965,27.1207719 91.2778947,27.1207719 L94.4162105,27.1207719 Z M112.483088,16.9601404 C112.483088,14.1534035 110.207789,11.8780351 107.400982,11.8780351 L106.59607,11.8780351 C105.060491,11.8780351 103.70386,12.6442105 102.88786,13.8152982 C102.798877,13.9429474 102.716491,14.0755088 102.640842,14.2123509 C102.614667,14.2084211 102.599158,14.206386 102.598807,14.2070877 L102.598807,12.5637193 C102.598807,12.3946667 102.461754,12.2575439 102.292632,12.2575439 L98.377193,12.2575439 C98.2081404,12.2575439 98.0710175,12.3945965 98.0710175,12.5637193 L98.0710175,26.8147368 C98.0710175,26.9837895 98.208,27.1208421 98.3770526,27.1209123 L102.377825,27.1218947 C102.546947,27.1219649 102.68407,26.9848421 102.68407,26.8157193 L102.68407,18.5825263 C102.68407,17.1593684 103.819158,15.9776842 105.242246,15.961614 C105.968702,15.9534035 106.627298,16.2444912 107.101965,16.7194386 C107.570386,17.1875789 107.86,17.8348772 107.86,18.5495439 L107.86,26.8167719 C107.86,26.9858246 107.997053,27.1228772 108.166035,27.1229474 L112.176702,27.1239299 C112.345825,27.1239299 112.483088,26.9868772 112.483088,26.8177544 L112.483088,16.9601404 Z" id="Combined-Shape"></path>
                                </g>
                            </g>
                        </g>
                    </g>
                </g>
            </g>
        </g>
    </g>
</svg>