<?xml version="1.0" encoding="UTF-8"?>
<svg width="207px" height="25px" viewBox="0 0 207 25" version="1.1" xmlns="http://www.w3.org/2000/svg" xmlns:xlink="http://www.w3.org/1999/xlink">
    <!-- Generator: sketchtool 55.2 (78181) - https://sketchapp.com -->
    <title>96CAABC1-BAD5-4686-97FF-43F43D8DF071</title>
    <desc>Created with sketchtool.</desc>
    <defs>
        <linearGradient x1="0%" y1="50.000618%" x2="100%" y2="50.000618%" id="linearGradient-1">
            <stop stop-color="#0A5ED9" offset="0%"></stop>
            <stop stop-color="#1897EE" offset="100%"></stop>
        </linearGradient>
        <linearGradient x1="0%" y1="49.9990113%" x2="100%" y2="49.9990113%" id="linearGradient-2">
            <stop stop-color="#0A5ED9" offset="0%"></stop>
            <stop stop-color="#1897EE" offset="100%"></stop>
        </linearGradient>
    </defs>
    <g id="Page-1" stroke="none" stroke-width="1" fill="none" fill-rule="evenodd">
        <g id="Home-Copy" transform="translate(-141.000000, -23.000000)" fill-rule="nonzero">
            <g id="Group-46">
                <g id="Group-45" transform="translate(141.000000, 15.000000)">
                    <g id="logo" transform="translate(0.000000, 8.500000)">
                        <g id="Group-5" transform="translate(0.000000, 0.367531)">
                            <path d="M5.92357057,-3.55271368e-15 L23.6942823,-3.55271368e-15 C23.6942823,3.27177191 21.0421908,5.92357057 17.7707117,5.92357057 L5.92357057,5.92357057 L5.92357057,17.7712974 L14.8090729,17.7712974 L14.8090729,23.6945751 L5.92357057,23.6945751 C2.65209152,23.6945751 7.10542736e-15,21.0424836 7.10542736e-15,17.7712974 L7.10542736e-15,5.92357057 C7.10542736e-15,2.65209152 2.65209152,-3.55271368e-15 5.92357057,-3.55271368e-15 Z" id="Path" fill="url(#linearGradient-1)"></path>
                            <path d="M8.88550229,8.88550229 L8.88550229,14.8090729 L17.7707117,14.8090729 L17.7707117,17.7712974 C17.7707117,21.0427765 20.4228032,23.694868 23.6942823,23.694868 L23.6942823,23.694868 L23.6942823,14.8090729 C23.6942823,11.5375938 21.0421908,8.88550229 17.7707117,8.88550229 L8.88550229,8.88550229 Z" id="Path" fill="url(#linearGradient-2)"></path>
                        </g>
                        <g id="Group-4" transform="translate(40.000000, 3.367531)" fill="#0052CC">
                            <path d="M4.39195655,16.2956362 C3.06504047,15.5589271 1.95899323,14.4811526 1.18817921,13.1737535 C0.396059738,11.8460239 7.10542736e-15,10.3589761 7.10542736e-15,8.71261008 C7.10542736e-15,7.06624412 0.396059738,5.5791963 1.18817921,4.25146662 C1.95896608,2.94404626 3.06501986,1.86626534 4.39195655,1.12958399 C5.73521798,0.376529228 7.20673405,1.84813834e-06 8.80650475,1.84813834e-06 C10.1111721,1.84813834e-06 11.3031166,0.229095226 12.3823382,0.687281981 C13.4387033,1.12937399 14.3881349,1.79257992 15.1667582,2.63228123 L13.0000784,4.7523657 C12.4409353,4.1626297 11.8236657,3.71997469 11.1482697,3.4244007 C10.4728737,3.12882671 9.68451954,2.98127504 8.78320712,2.9817457 C7.75811133,2.9817457 6.81855785,3.21860496 5.96454669,3.69232347 C5.11053553,4.16604197 4.43102127,4.84143796 3.92600392,5.71851143 C3.4212219,6.59605555 3.16883089,7.59385311 3.16883089,8.7119041 C3.16883089,9.82995508 3.42510484,10.8278703 3.93765274,11.7056498 C4.45020063,12.5831939 5.13748077,13.2587075 5.99949314,13.7321907 C6.86150551,14.2056739 7.80494192,14.4425331 8.82980238,14.4427685 C10.3829778,14.4427685 11.656464,13.9845817 12.650261,13.0682082 C12.9608961,12.7886366 13.2327018,12.4315239 13.4656781,11.9968702 C13.7030472,11.5498503 13.8756249,11.0713393 13.978226,10.5757146 L8.73661186,10.5757146 L8.73661186,7.89648699 L16.9133746,7.89648699 C17.0272972,8.37727165 17.0820639,8.87017217 17.076458,9.36423778 C17.076458,10.467463 16.9094916,11.4924411 16.5755589,12.4391722 C16.2518817,13.3699122 15.7315355,14.2200196 15.049917,14.9316657 C14.3043928,15.739317 13.4035511,16.3567042 12.3473918,16.7838275 C11.2912325,17.2109507 10.1109368,17.4243947 8.80650475,17.4241603 C7.20673405,17.4248653 5.73521798,17.0486909 4.39195655,16.2956362 Z M22.8772153,3.35344882 L18.2176889,3.35344882 L18.2176889,0.372763954 L30.6808629,0.372763954 L30.6808629,3.35344882 L26.0213366,3.35344882 L26.0213366,17.0496323 L22.8765093,17.0496323 L22.8772153,3.35344882 Z M33.2905506,16.6101542 C32.3565411,16.0796169 31.587018,15.3016657 31.0666858,14.3619328 C30.5308402,13.4067299 30.2629175,12.3312735 30.2629175,11.1355638 C30.2629175,10.0022164 30.5269573,8.94994 31.055037,7.97873469 C31.566255,7.02583957 32.3215615,6.2259456 33.2436024,5.66097334 C34.1755076,5.08653375 35.2161352,4.7991963 36.365485,4.79896097 C37.5922583,4.79896097 38.6482999,5.06300079 39.5336099,5.59108044 C40.4021214,6.10136446 41.1025789,6.85433485 41.548855,7.75740719 C42.0068065,8.67519268 42.2357965,9.69252259 42.2357965,10.8093969 C42.2364632,11.1518642 42.2128711,11.4939492 42.1651833,11.8330807 L33.2439553,11.8330807 C33.3992729,12.7805178 33.7758003,13.4982731 34.3735375,13.9863467 C34.9712747,14.4744203 35.6896183,14.7190454 36.5285684,14.7202221 C37.2274974,14.7202221 37.8292352,14.5687875 38.3337819,14.2659183 C38.8328779,13.9688514 39.2463996,13.5474241 39.5339629,13.0427926 L42.0049238,14.2542695 C40.793447,16.3665881 38.9530517,17.4226297 36.4837381,17.4224041 C35.3023835,17.424277 34.2379876,17.1535303 33.2905506,16.6101542 Z M39.3009866,9.66781298 C39.2694524,9.29505088 39.1335496,8.92617171 38.893278,8.56117548 C38.6530065,8.19617925 38.3190738,7.89331004 37.8914799,7.65256785 C37.4643566,7.41206098 36.9635752,7.29168989 36.3891356,7.29145456 C35.6596138,7.29145456 35.0344607,7.50501618 34.5136763,7.93213943 C33.9928918,8.35926267 33.6163645,8.93782052 33.3840941,9.66781298 L39.3009866,9.66781298 Z M47.0813366,16.621803 C46.1439006,16.0957505 45.3732821,15.3166919 44.8574717,14.3735816 C44.3216262,13.4110835 44.0537034,12.3239783 44.0537034,11.1122661 C44.0537034,9.90055397 44.3216262,8.8172141 44.8574717,7.86224653 C45.3779148,6.92268773 46.1474191,6.14487771 47.0813366,5.61437807 C48.0283029,5.07076667 49.099994,4.79896097 50.2964097,4.79896097 C51.6161382,4.79896097 52.7498386,5.08241549 53.6975109,5.64932452 C54.6451833,6.21623356 55.3284628,7.01988418 55.7473495,8.0602764 L52.9519867,9.22515798 C52.4544999,8.16946934 51.5693076,7.64138969 50.2964097,7.64091903 C49.3645045,7.64091903 48.5996832,7.95932 48.001946,8.59612193 C47.4042088,9.23292386 47.1052225,10.0716386 47.1049872,11.1122661 C47.1049872,12.1684254 47.4039734,13.0147884 48.001946,13.651355 C48.5999185,14.2879216 49.3647398,14.6063226 50.2964097,14.6065579 C51.5850747,14.6065579 52.5168623,14.0474147 53.0917725,12.9291284 L55.8638377,14.1406053 C55.3517604,15.1812328 54.6222386,15.988884 53.6752723,16.5635589 C52.7283059,17.1382339 51.6023714,17.4254537 50.2974687,17.4252185 C49.1005823,17.4252185 48.0285382,17.1574132 47.0813366,16.621803 Z M58.05558,0.372763954 L61.1072168,0.372763954 L61.1072168,4.58892929 L60.9208357,6.6624185 L61.1072168,6.6624185 C61.44868,6.10327534 61.9456962,5.65285447 62.5982652,5.31115587 C63.251835,4.97022576 63.9791065,4.79495332 64.7162317,4.80072594 C66.1606849,4.80072594 67.266734,5.23173212 68.0343792,6.09374449 C68.8020244,6.95575686 69.1864354,8.14770135 69.187612,9.66957795 L69.187612,17.0542212 L66.1391522,17.0542212 L66.1391522,10.0405751 C66.1391522,9.27975445 65.9333565,8.68954778 65.521765,8.26995508 C65.1101735,7.85036239 64.5627968,7.6406837 63.8796349,7.64091903 C63.0717484,7.64091903 62.4077659,7.96708587 61.8876874,8.61941956 C61.367609,9.27175324 61.1074521,10.0718739 61.1072168,11.0197816 L61.1072168,17.0524562 L58.05558,17.0524562 L58.05558,0.372763954 Z M73.5220305,16.2377451 C72.4348077,15.4456256 71.6892835,14.3351052 71.2854578,12.9061838 L73.172566,12.1373619 C73.4366058,13.1318649 73.9258561,13.947282 74.6403168,14.5836133 C75.3547775,15.2199445 76.1933746,15.5383455 77.156108,15.5388161 C78.1190768,15.5388161 78.9344939,15.2786593 79.6023593,14.7583455 C80.2702248,14.2380317 80.6040398,13.527454 80.6038045,12.6266122 C80.6038045,11.8500245 80.3204676,11.2094573 79.7537939,10.7049106 C79.1871202,10.2003639 78.2590979,9.73052832 76.969727,9.29540387 L75.9213335,8.92264176 C74.7409202,8.50328439 73.7780691,7.95190711 73.0327802,7.26850992 C72.2874913,6.58511272 71.9147292,5.63779337 71.9144939,4.42655186 C71.9112305,3.64423984 72.1380848,2.87823842 72.5668276,2.22386668 C73.0014814,1.54823537 73.6072198,1.0085069 74.3840428,0.604681287 C75.1608659,0.200855672 76.0305265,-0.000704140699 76.9930246,2.10942354e-15 C77.9559934,2.10942354e-15 78.7947081,0.178617024 79.5091688,0.535847375 C80.2236295,0.893077727 80.7943038,1.32843751 81.2211917,1.84192672 C81.648315,2.35447462 81.9473013,2.85913897 82.1181506,3.35591978 L80.254693,4.14803926 C80.0989048,3.57383501 79.7459104,3.05352123 79.1957098,2.58709794 C78.6455091,2.12067465 77.9193996,1.887816 77.0173812,1.88852199 C76.1631347,1.88852199 75.4336129,2.12914652 74.8288158,2.61039557 C74.2240187,3.09164463 73.9211495,3.69738305 73.9202082,4.42761084 C73.9202082,5.07994452 74.1764821,5.61190711 74.68903,6.0234986 C75.2015779,6.4350901 75.9781656,6.81950102 77.0187932,7.17673137 L78.1130759,7.54914048 C79.5250536,8.06168838 80.6276905,8.70237325 81.4209866,9.47119509 C82.2142827,10.2400169 82.6097541,11.2835861 82.6074113,12.6019026 C82.6074113,13.6735936 82.3317122,14.5744354 81.7803349,15.3044279 C81.2457781,16.02196 80.5240116,16.5784896 79.6941379,16.9130234 C78.8737851,17.2507962 77.9952698,17.4247964 77.1081008,17.4252183 C75.8043747,17.4252183 74.609018,17.0293939 73.5220305,16.2377451 Z M87.4526022,16.5868566 C86.5315709,16.0391776 85.7782858,15.2495102 85.2746266,14.3036887 C84.7547835,13.3411906 84.494862,12.2773831 84.494862,11.1122661 C84.494862,9.94714923 84.7550189,8.88322405 85.2753326,7.92049061 C85.7792061,6.97491608 86.5324491,6.18541484 87.4533082,5.63767571 C88.3852135,5.07853255 89.4336069,4.79896097 90.5984885,4.79896097 C91.76337,4.79896097 92.8116458,5.07853255 93.7433157,5.63767571 C94.6641916,6.18550643 95.4175271,6.97497658 95.9216443,7.92049061 C96.4414874,8.88393004 96.7015266,9.94785522 96.7017621,11.1122661 C96.7019973,12.2766771 96.4419581,13.3404846 95.9216443,14.3036887 C95.4177411,15.2494495 94.6643636,16.0390858 93.7433157,16.5868566 C92.8114105,17.1457644 91.7631347,17.4252183 90.5984885,17.4252183 C89.4338422,17.4252183 88.3852135,17.1457644 87.4526022,16.5868566 Z M92.6359722,15.0841593 C93.2650083,14.7196338 93.7697903,14.1954371 94.1503183,13.5115692 C94.5308463,12.8277014 94.7211103,12.0275807 94.7211103,11.1112072 C94.7211103,10.1948336 94.5308463,9.39471297 94.1503183,8.71084511 C93.7697903,8.02697726 93.2650083,7.50289821 92.6359722,7.13860797 C92.017984,6.77659174 91.3139892,6.58748612 90.5977825,6.59106241 C89.8778992,6.58836645 89.1702648,6.777337 88.5475909,7.13860797 C87.910789,7.5036042 87.402124,8.02768325 87.021596,8.71084511 C86.641068,9.39400698 86.4509217,10.1941277 86.4511568,11.1112072 C86.4511568,12.0275807 86.6413034,12.8277014 87.021596,13.5115692 C87.4018887,14.1954371 87.9105536,14.7196338 88.5475909,15.0841593 C89.1702648,15.4454303 89.8778992,15.6344009 90.5977825,15.6317049 C91.3139892,15.6352812 92.017984,15.4461756 92.6359722,15.0841593 Z M98.8910333,0.372763954 L100.871332,0.372763954 L100.871332,17.0524562 L98.8910333,17.0524562 L98.8910333,0.372763954 Z M104.843225,16.1671462 C104.09017,15.3284315 103.713643,14.155784 103.713643,12.6492038 L103.713643,5.17172307 L105.693942,5.17172307 L105.693942,12.3466876 C105.693942,13.480741 105.950216,14.3116899 106.462764,14.8395342 C106.975312,15.3673785 107.666357,15.6314184 108.5359,15.6316537 C109.203295,15.6316537 109.797384,15.4530385 110.318169,15.0958082 C110.835421,14.7417189 111.252669,14.2602785 111.529645,13.6979503 C111.814182,13.1346466 111.961848,12.5121747 111.960652,11.881088 L111.960652,5.17172307 L113.940597,5.17172307 L113.940597,17.0524562 L112.053842,17.0524562 L112.053842,15.3287845 L111.960652,15.3287845 C111.634485,15.9189911 111.114171,16.4160073 110.39971,16.8198329 C109.70482,17.2181338 108.917488,17.4268962 108.116542,17.4252284 C106.687386,17.4252284 105.59628,17.005861 104.843225,16.1671462 Z M120.217897,17.0062139 C119.834101,16.8682427 119.48174,16.6549779 119.181506,16.3789429 C118.876557,16.0928594 118.637988,15.74344 118.482577,15.3552591 C118.327259,14.9672005 118.2496,14.493482 118.2496,13.9341035 L118.2496,6.96564071 L116.176111,6.96564071 L116.176111,5.17172307 L118.2496,5.17172307 L118.2496,1.8182761 L120.229546,1.8182761 L120.229546,5.17172307 L123.118452,5.17172307 L123.118452,6.96564071 L120.229546,6.96564071 L120.229546,13.4416763 C120.229546,14.09401 120.3538,14.5754944 120.602308,14.8861295 C120.897411,15.2278281 121.324535,15.3986774 121.883678,15.3986774 C122.334099,15.3986774 122.769458,15.2666575 123.189757,15.0026176 L123.189757,16.9363211 C122.96336,17.0427754 122.7247,17.1209061 122.479179,17.1689444 C122.175268,17.220869 121.867198,17.2445031 121.558923,17.2395433 C121.101463,17.2437377 120.647056,17.164674 120.217897,17.0062139 Z M125.796974,2.56238833 C125.524844,2.30084023 125.373053,1.93835701 125.377617,1.56094317 C125.372224,1.18717522 125.524444,0.828407849 125.796974,0.572558795 C126.354207,0.0289126852 127.243338,0.0289126852 127.80057,0.572558795 C128.073559,0.828823823 128.22582,1.1883291 128.219928,1.56270814 C128.225103,1.93793397 128.078007,2.29924232 127.812219,2.5641533 C127.540413,2.84372488 127.202598,2.98351067 126.798772,2.98351067 C126.420997,2.9875846 126.058376,2.83515107 125.796974,2.56238833 Z M125.820272,5.17172307 L127.777273,5.17172307 L127.777273,17.0524562 L125.820272,17.0524562 L125.820272,5.17172307 Z M133.11243,16.5868566 C132.191303,16.0391854 131.437902,15.2495241 130.934102,14.3036887 C130.413553,13.3411906 130.153396,12.2773831 130.153631,11.1122661 C130.153866,9.94714923 130.414023,8.88322405 130.934102,7.92049061 C131.438116,6.97490211 132.191475,6.185407 133.11243,5.63767571 C134.0441,5.07970919 135.092376,4.80072594 136.257258,4.80072594 C137.422139,4.80072594 138.470415,5.08029752 139.402085,5.63944068 C140.322961,6.1872714 141.076296,6.97674155 141.580413,7.92225558 C142.100256,8.88569501 142.360413,9.94962019 142.360885,11.1140311 C142.361355,12.278442 142.101198,13.3422495 141.580413,14.3054537 C141.07651,15.2512145 140.323133,16.0408508 139.402085,16.5886215 C138.47018,17.1475294 137.421904,17.4269833 136.257258,17.4269833 C135.092611,17.4269833 134.044335,17.1469411 133.11243,16.5868566 Z M138.295447,15.0841593 C138.924483,14.7196338 139.429265,14.1954371 139.809793,13.5115692 C140.190321,12.8277014 140.380585,12.0275807 140.380585,11.1112072 C140.380585,10.1948336 140.190321,9.39471297 139.809793,8.71084511 C139.429265,8.02697726 138.924483,7.50289821 138.295447,7.13860797 C137.677473,6.77655943 136.973469,6.58745138 136.257258,6.59106143 C135.537374,6.58836645 134.82974,6.777337 134.207066,7.13860797 C133.570264,7.5036042 133.061717,8.02768325 132.681424,8.71084511 C132.301131,9.39400698 132.110867,10.1941277 132.110632,11.1112072 C132.110632,12.0275807 132.300896,12.8277014 132.681424,13.5115692 C133.061952,14.1954371 133.570499,14.7196338 134.207066,15.0841593 C134.82974,15.4454303 135.537374,15.6344009 136.257258,15.6317059 C136.973469,15.6353159 137.677473,15.4462079 138.295447,15.0841593 Z M144.433314,5.17172307 L146.320422,5.17172307 L146.320422,6.91869245 L146.413613,6.91869245 C146.73978,6.32848578 147.259976,5.8275867 147.974201,5.41599521 C148.666998,5.01120218 149.455338,4.79879277 150.257722,4.80071286 C151.686173,4.80071286 152.777161,5.21620037 153.530686,6.04714923 C154.284212,6.87809809 154.660739,8.00768023 154.660269,9.43589565 L154.660269,17.0535152 L152.67997,17.0535152 L152.67997,9.73770588 C152.67997,8.63518664 152.416048,7.83506596 151.888203,7.33734383 C151.360359,6.8396217 150.638132,6.59123129 149.721524,6.59217261 C149.108328,6.58562749 148.50892,6.77414011 148.009854,7.1304891 C147.502875,7.4902186 147.097668,7.97508016 146.833676,8.53787785 C146.556969,9.10779562 146.413564,9.73320239 146.414319,10.3667419 L146.414319,17.0524562 L144.433314,17.0524562 L144.433314,5.17172307 Z M158.341294,16.5286125 C157.487048,15.93064 156.881427,15.1658187 156.524432,14.2341488 L158.294699,13.4420293 C158.589567,14.15649 159.028339,14.7078673 159.611015,15.0961611 C160.178235,15.4798407 160.848286,15.6828865 161.53307,15.6786019 C162.278123,15.6786019 162.914808,15.5271673 163.443123,15.2242981 C163.971438,14.9214289 164.23583,14.4903051 164.236301,13.9309266 C164.236301,13.4341458 164.026622,13.0340854 163.607265,12.7307456 C163.187908,12.4274057 162.527926,12.1673665 161.627319,11.9506279 L160.18216,11.5782188 C159.234723,11.3452425 158.458135,10.9491827 157.852397,10.3900396 C157.246659,9.8308964 156.943907,9.10914048 156.944142,8.2247718 C156.944142,7.54231592 157.14982,6.9405781 157.561177,6.41955834 C157.972533,5.89853858 158.520027,5.49847824 159.20366,5.21937732 C159.886116,4.93980574 160.623874,4.80001995 161.416935,4.80001995 C162.457327,4.80001995 163.385232,5.02523039 164.200649,5.47565127 C165.016066,5.92607215 165.594624,6.55499053 165.936322,7.36240643 L164.212297,8.15417291 C163.684218,7.09848427 162.744664,6.57052229 161.393637,6.57028696 C160.741303,6.57028696 160.170511,6.72172156 159.681261,7.02459078 C159.192011,7.32745999 158.947386,7.71175324 158.947386,8.17747055 C158.947386,8.61283033 159.118235,8.96582475 159.459934,9.2364538 C159.801632,9.50708286 160.31418,9.72841036 160.997577,9.9004363 L162.721249,10.3427383 C163.886131,10.6378416 164.763675,11.0766137 165.353881,11.6590545 C165.944088,12.2414953 166.239191,12.9519554 166.239191,13.7904348 C166.239191,14.5199566 166.029513,15.1606415 165.610155,15.7124894 C165.190798,16.2643373 164.623889,16.6879306 163.909428,16.9832693 C163.194968,17.2783726 162.402966,17.4259243 161.533423,17.4259243 C160.259584,17.4254537 159.195541,17.1263497 158.341294,16.5286125 Z" id="Combined-Shape"></path>
                        </g>
                    </g>
                </g>
            </g>
        </g>
    </g>
</svg>