<svg xmlns="http://www.w3.org/2000/svg" width="60" height="60" viewBox="0 0 60 60"><defs><style>.a{fill:#36b37e;}</style></defs><path class="a" d="M11.718,13.243A2.344,2.344,0,0,1,14.062,10.9H45.937a2.344,2.344,0,0,1,0,4.688H14.062A2.344,2.344,0,0,1,11.718,13.243Zm36.563,9.375a2.344,2.344,0,0,0-2.344-2.344H14.062a2.344,2.344,0,0,0,0,4.688H45.937A2.344,2.344,0,0,0,48.281,22.618ZM14.062,29.649a2.344,2.344,0,0,0,0,4.687H24.843a2.344,2.344,0,0,0,0-4.687ZM57.942,48A7.031,7.031,0,0,1,48,57.941L35.18,45.1a2.339,2.339,0,0,1-.6-1.03l-2.621-9.46a2.344,2.344,0,0,1,2.94-2.868l9.226,2.8a2.34,2.34,0,0,1,.978.587ZM38.933,42.225l8.615,8.631,3.315-3.315L42.2,38.859l-4.585-1.393Zm15.693,9.087-.451-.453-3.315,3.315.453.454a2.344,2.344,0,0,0,3.313-3.316ZM50.624,0H9.374A9.385,9.385,0,0,0,0,9.376v41.25A9.385,9.385,0,0,0,9.374,60H38.085a2.344,2.344,0,1,0,0-4.687H9.374a4.693,4.693,0,0,1-4.687-4.687V9.376A4.693,4.693,0,0,1,9.374,4.688h41.25a4.693,4.693,0,0,1,4.688,4.688V38.2A2.344,2.344,0,0,0,60,38.2V9.376A9.385,9.385,0,0,0,50.624,0Zm0,0" transform="translate(0.001 -0.001)"/></svg>