<svg xmlns="http://www.w3.org/2000/svg" width="59.906" height="60" viewBox="0 0 59.906 60"><defs><style>.a{fill:#78ffc6;}.b{fill:#36b37e;}.c{fill:#fff;}</style></defs><path class="a" d="M47.724,20.93h0A27.594,27.594,0,0,1,75.318,48.524h0A27.594,27.594,0,0,1,47.724,76.118h0A27.594,27.594,0,0,1,20.13,48.524h0A27.593,27.593,0,0,1,47.724,20.93Z" transform="translate(-17.771 -18.477)"/><path class="b" d="M29.953,60.715A29.953,29.953,0,1,1,59.906,30.763,29.987,29.987,0,0,1,29.953,60.715Zm0-55.188A25.236,25.236,0,1,0,55.189,30.763,25.265,25.265,0,0,0,29.953,5.527Z" transform="translate(0 -0.715)"/><path class="c" d="M172.448,75.389h0c-6.086,0-11.038-12.359-11.038-27.594h0c0-15.236,4.929-27.664,11.038-27.664" transform="translate(-142.495 -17.771)"/><path class="b" d="M154.686,59.977c-8.7,0-13.4-15.431-13.4-29.953C141.289,15.47,145.985,0,154.686,0V4.717c-3.625,0-8.679,9.627-8.679,25.307,0,15.634,5.057,25.236,8.679,25.236Z" transform="translate(-124.733)"/><path class="c" d="M255.6,75.389h0c6.084,0,11.038-12.359,11.038-27.594h0c0-15.236-4.952-27.664-11.038-27.664" transform="translate(-225.647 -17.771)"/><g transform="translate(2.359)"><path class="b" d="M255.6,59.977V55.26c3.622,0,8.679-9.6,8.679-25.236,0-15.448-5.141-25.307-8.679-25.307V0C264.3,0,269,15.47,269,30.023,269,44.545,264.3,59.977,255.6,59.977Z" transform="translate(-228.006)"/><rect class="b" width="55.188" height="4.717" transform="translate(0 27.664)"/></g></svg>