<svg xmlns="http://www.w3.org/2000/svg" width="60.016" height="60" viewBox="0 0 60.016 60"><defs><style>.a{fill:#36b37e;}</style></defs><g transform="translate(0 -0.067)"><g transform="translate(38.916 12.726)"><circle class="a" cx="3.751" cy="3.751" r="3.751"/></g><g transform="translate(0 0.067)"><g transform="translate(0 0)"><path class="a" d="M59.368,19.51a34.2,34.2,0,0,0-7.375-11.6A33.412,33.412,0,0,0,40.483.686a9.425,9.425,0,0,0-10,2.12l-9.206,9.163a9.381,9.381,0,0,0-1.957,10.4c.483,1.087,1.009,2.15,1.57,3.177L.687,45.75A2.344,2.344,0,0,0,0,47.407V57.723a2.344,2.344,0,0,0,2.344,2.344H12.659A2.344,2.344,0,0,0,15,57.723V53.5h4.22a2.344,2.344,0,0,0,2.344-2.344v-4.22h4.22a2.344,2.344,0,0,0,0-4.689H19.224a2.344,2.344,0,0,0-2.344,2.344v4.22h-4.22a2.344,2.344,0,0,0-2.344,2.344v4.22H4.689v-7L25.478,27.59a2.344,2.344,0,0,0,.347-2.874,37.939,37.939,0,0,1-2.218-4.253,4.666,4.666,0,0,1,.981-5.172l9.206-9.163A4.729,4.729,0,0,1,38.81,5.065a28.7,28.7,0,0,1,9.876,6.172A29.5,29.5,0,0,1,55,21.224a4.655,4.655,0,0,1-1.051,5L44.636,35.5a4.721,4.721,0,0,1-5.159,1.006,30.429,30.429,0,0,1-4.22-2.153,2.344,2.344,0,0,0-2.453,4,35.137,35.137,0,0,0,4.872,2.486,9.4,9.4,0,0,0,10.268-2.012l9.317-9.273A9.341,9.341,0,0,0,59.368,19.51Z" transform="translate(0 -0.067)"/></g></g></g></svg>