<svg xmlns="http://www.w3.org/2000/svg" width="74" height="68.168" viewBox="0 0 74 68.168"><defs><style>.a{fill:#fff;stroke-linecap:round;stroke-linejoin:round;}.b,.c{stroke:none;}.c{fill:#36b37e;}</style></defs><g class="a" transform="translate(-8313.5 284.501)"><path class="b" d="M 8378.666015625 -218.3331756591797 L 8376.666015625 -218.3331756591797 L 8324.166015625 -218.3331756591797 L 8322.166015625 -218.3331756591797 L 8322.166015625 -220.3331756591797 L 8322.166015625 -249.6668853759766 L 8322.166015625 -251.6668853759766 L 8324.166015625 -251.6668853759766 L 8325.037109375 -251.6668853759766 C 8322.73046875 -252.0629425048828 8320.6015625 -253.1555480957031 8318.9033203125 -254.8400726318359 C 8316.7353515625 -256.9919738769531 8315.5263671875 -259.8552856445312 8315.5 -262.902587890625 L 8315.4970703125 -263.2359924316406 L 8315.6025390625 -263.5523071289062 L 8321.462890625 -281.1331787109375 L 8321.9189453125 -282.500732421875 L 8323.3603515625 -282.500732421875 L 8336.4990234375 -282.500732421875 L 8338.4990234375 -282.500732421875 L 8340.4990234375 -282.500732421875 L 8360.4990234375 -282.500732421875 L 8362.4990234375 -282.500732421875 L 8364.4990234375 -282.500732421875 L 8377.640625 -282.500732421875 L 8379.08203125 -282.500732421875 L 8379.5380859375 -281.1330871582031 L 8385.3974609375 -263.55224609375 L 8385.5029296875 -263.2361450195312 L 8385.5 -262.9029541015625 C 8385.474609375 -259.8556823730469 8384.265625 -256.9922180175781 8382.0966796875 -254.8400726318359 C 8380.3994140625 -253.1555480957031 8378.2705078125 -252.0629425048828 8375.9638671875 -251.6668853759766 L 8376.666015625 -251.6668853759766 L 8378.666015625 -251.6668853759766 L 8378.666015625 -249.6668853759766 L 8378.666015625 -220.3331756591797 L 8378.666015625 -218.3331756591797 Z M 8333.6669921875 -237.3324584960938 L 8366.6650390625 -237.3324584960938 L 8366.6650390625 -249.6668853759766 L 8366.6650390625 -251.6668853759766 L 8368.6650390625 -251.6668853759766 L 8372.0439453125 -251.6668853759766 C 8366.630859375 -252.5984344482422 8362.4990234375 -257.3258056640625 8362.4990234375 -262.9998168945312 L 8362.4990234375 -263.5005493164062 C 8362.4990234375 -260.2951354980469 8361.2509765625 -257.2816467285156 8358.984375 -255.0151672363281 C 8356.7177734375 -252.7485961914062 8353.7041015625 -251.5003356933594 8350.4990234375 -251.5003356933594 C 8343.8818359375 -251.5003356933594 8338.4990234375 -256.8836059570312 8338.4990234375 -263.5005493164062 L 8338.4990234375 -262.9998168945312 C 8338.4990234375 -257.3258056640625 8334.3681640625 -252.5984344482422 8328.95703125 -251.6668853759766 L 8331.6669921875 -251.6668853759766 L 8333.6669921875 -251.6668853759766 L 8333.6669921875 -249.6668853759766 L 8333.6669921875 -237.3324584960938 Z"/><path class="c" d="M 8376.666015625 -220.3331756591797 L 8376.666015625 -249.6668853759766 L 8368.6650390625 -249.6668853759766 L 8368.6650390625 -235.3324584960938 L 8331.6669921875 -235.3324584960938 L 8331.6669921875 -249.6668853759766 L 8324.166015625 -249.6668853759766 L 8324.166015625 -220.3331756591797 L 8376.666015625 -220.3331756591797 M 8374.0009765625 -253.5003356933594 C 8379.2119140625 -253.5003356933594 8383.4560546875 -257.7188110351562 8383.5 -262.9198608398438 L 8377.640625 -280.500732421875 L 8364.4990234375 -280.500732421875 L 8364.4990234375 -262.9998168945312 C 8364.4990234375 -257.7608947753906 8368.76171875 -253.5003356933594 8374.0009765625 -253.5003356933594 M 8350.4990234375 -253.5003356933594 C 8356.0224609375 -253.5003356933594 8360.4990234375 -257.9776000976562 8360.4990234375 -263.5005493164062 L 8360.4990234375 -280.500732421875 L 8340.4990234375 -280.500732421875 L 8340.4990234375 -263.5005493164062 C 8340.4990234375 -257.9776000976562 8344.978515625 -253.5003356933594 8350.4990234375 -253.5003356933594 M 8327 -253.5003356933594 C 8332.2392578125 -253.5003356933594 8336.4990234375 -257.7608947753906 8336.4990234375 -262.9998168945312 L 8336.4990234375 -280.500732421875 L 8323.3603515625 -280.500732421875 L 8317.5 -262.9198608398438 C 8317.544921875 -257.7188110351562 8321.7880859375 -253.5003356933594 8327 -253.5003356933594 M 8376.666015625 -216.3331756591797 L 8324.166015625 -216.3331756591797 C 8321.95703125 -216.3331756591797 8320.166015625 -218.1240386962891 8320.166015625 -220.3331756591797 L 8320.166015625 -249.6668853759766 C 8320.166015625 -250.204345703125 8320.2724609375 -250.7169494628906 8320.4638671875 -251.1851196289062 C 8319.3896484375 -251.7822113037109 8318.3916015625 -252.5309448242188 8317.4951171875 -253.4204406738281 C 8314.9501953125 -255.9460754394531 8313.53125 -259.3074340820312 8313.5 -262.8853149414062 C 8313.49609375 -263.3268127441406 8313.5654296875 -263.7658996582031 8313.705078125 -264.1847839355469 L 8319.5654296875 -281.7656555175781 C 8320.1103515625 -283.3990173339844 8321.638671875 -284.500732421875 8323.3603515625 -284.500732421875 L 8336.4990234375 -284.500732421875 C 8337.2275390625 -284.500732421875 8337.9111328125 -284.305908203125 8338.4990234375 -283.9656066894531 C 8339.0869140625 -284.305908203125 8339.7705078125 -284.500732421875 8340.4990234375 -284.500732421875 L 8360.4990234375 -284.500732421875 C 8361.2275390625 -284.500732421875 8361.9111328125 -284.305908203125 8362.4990234375 -283.9656066894531 C 8363.0869140625 -284.305908203125 8363.7705078125 -284.500732421875 8364.4990234375 -284.500732421875 L 8377.640625 -284.500732421875 C 8379.3623046875 -284.500732421875 8380.890625 -283.39892578125 8381.435546875 -281.7654724121094 L 8387.294921875 -264.1846008300781 C 8387.4345703125 -263.7660217285156 8387.50390625 -263.3272705078125 8387.5 -262.8860778808594 C 8387.4697265625 -259.3080749511719 8386.05078125 -255.9464263916016 8383.505859375 -253.4204406738281 C 8382.5712890625 -252.4929962158203 8381.5244140625 -251.7183380126953 8380.3984375 -251.1092987060547 C 8380.5712890625 -250.6617889404297 8380.666015625 -250.1754913330078 8380.666015625 -249.6668853759766 L 8380.666015625 -220.3331756591797 C 8380.666015625 -218.1240386962891 8378.875 -216.3331756591797 8376.666015625 -216.3331756591797 Z M 8335.6669921875 -239.3324584960938 L 8364.6650390625 -239.3324584960938 L 8364.6650390625 -249.6668853759766 C 8364.6650390625 -250.7024230957031 8365.05859375 -251.6461486816406 8365.7041015625 -252.3564910888672 C 8364.3818359375 -253.3894348144531 8363.255859375 -254.6629486083984 8362.392578125 -256.1106872558594 C 8361.830078125 -255.2047424316406 8361.1630859375 -254.3652954101562 8360.3984375 -253.6009979248047 C 8359.1142578125 -252.3164825439453 8357.6171875 -251.3075408935547 8355.9501953125 -250.6021881103516 C 8354.2216796875 -249.8710479736328 8352.3876953125 -249.5003356933594 8350.4990234375 -249.5003356933594 C 8348.611328125 -249.5003356933594 8346.77734375 -249.8710784912109 8345.048828125 -250.6022491455078 C 8343.3818359375 -251.3075714111328 8341.884765625 -252.31640625 8340.6005859375 -253.6007080078125 C 8339.8359375 -254.3651580810547 8339.1689453125 -255.204833984375 8338.60546875 -256.1109008789062 C 8337.654296875 -254.5148010253906 8336.3837890625 -253.1303253173828 8334.8828125 -252.0466613769531 C 8335.375 -251.3816375732422 8335.6669921875 -250.5582885742188 8335.6669921875 -249.6668853759766 L 8335.6669921875 -239.3324584960938 Z"/></g></svg>