<svg xmlns="http://www.w3.org/2000/svg" width="67.006" height="60" viewBox="0 0 67.006 60"><defs><style>.a{fill:#78ffc6;}.b{fill:#36b37e;}</style></defs><g transform="translate(-0.004 0.005)"><path class="a" d="M173.27,65.336a2.789,2.789,0,0,1-2.79-2.79V45.808a2.792,2.792,0,0,1,.851-2.009L210.385,6.14l3.878,4.016-38.2,36.838v9.861l11.158-8.675,3.417,4.408-15.65,12.163A2.789,2.789,0,0,1,173.27,65.336Z" transform="translate(-148.166 -5.341)"/><path class="b" d="M54.395,53.02a2.781,2.781,0,0,1-.92-.153L1.867,34.735a2.79,2.79,0,0,1-.279-5.147L62.959.3a2.789,2.789,0,0,1,3.989,3.069L57.184,50.788A2.787,2.787,0,0,1,54.395,53.02ZM10.082,31.708,52.3,46.534,60.294,7.745Z" transform="translate(0 0)"/></g></svg>