<svg xmlns="http://www.w3.org/2000/svg" width="66.667" height="50" viewBox="0 0 66.667 50"><defs><style>.a{fill:#78ffc6;}.b{fill:#36b37e;}</style></defs><g transform="translate(-464 -1201)"><g transform="translate(464 1201)"><rect class="a" width="61.111" height="11.111" transform="translate(2.777 13.889)"/><path class="b" d="M58.333,50h-50A8.344,8.344,0,0,1,0,41.667V8.333A8.344,8.344,0,0,1,8.333,0h50a8.343,8.343,0,0,1,8.333,8.333V41.667A8.343,8.343,0,0,1,58.333,50Zm-50-44.444A2.782,2.782,0,0,0,5.556,8.333V41.667a2.78,2.78,0,0,0,2.777,2.777h50a2.778,2.778,0,0,0,2.777-2.777V8.333a2.781,2.781,0,0,0-2.777-2.777Z"/><path class="b" d="M63.889,176.225H2.777a2.777,2.777,0,1,1,0-5.555H63.888a2.777,2.777,0,0,1,0,5.555Z" transform="translate(0 -148.447)"/><path class="b" d="M63.889,90.895H2.777a2.777,2.777,0,1,1,0-5.555H63.888a2.777,2.777,0,0,1,0,5.555Z" transform="translate(0 -74.228)"/><rect class="b" width="11.111" height="5.556" transform="translate(11.111 33.333)"/><rect class="b" width="8.333" height="5.556" transform="translate(27.777 33.333)"/></g></g></svg>