<svg xmlns="http://www.w3.org/2000/svg" width="61.084" height="61.035" viewBox="0 0 61.084 61.035"><defs><style>.a{fill:#36b37e;stroke:#36b37e;}.b{fill:#78ffc6;stroke:#78ffc6;}</style></defs><g transform="translate(0.539 0.536)"><path class="a" d="M29.934,60a29.73,29.73,0,0,1-15.569-4.406l-11.2,3.06A2.5,2.5,0,0,1,.24,55.177a22.434,22.434,0,0,0,1.147-16.2,30.348,30.348,0,0,1-.938-3.855A29.992,29.992,0,0,1,24.868.441c.05-.007.1-.015.15-.02A29.994,29.994,0,0,1,54.975,46.6,29.782,29.782,0,0,1,35.916,59.4,30.408,30.408,0,0,1,29.934,60Zm-15.16-9.605a2.514,2.514,0,0,1,1.385.417A24.995,24.995,0,1,0,25.75,5.368c-.045.007-.09.015-.135.02A25,25,0,0,0,5.376,34.27a25.136,25.136,0,0,0,.783,3.224,27.436,27.436,0,0,1,.325,15.068l7.631-2.083A2.6,2.6,0,0,1,14.774,50.394Z" transform="translate(0 0)"/><path class="b" d="M171.8,196.969h-20a2.5,2.5,0,1,1,0-5h20a2.5,2.5,0,0,1,0,5Z" transform="translate(-131.803 -169.473)"/><path class="b" d="M171.8,282.28h-20a2.5,2.5,0,0,1,0-5h20a2.5,2.5,0,0,1,0,5Z" transform="translate(-131.803 -244.785)"/></g></svg>