<svg xmlns="http://www.w3.org/2000/svg" width="50.163" height="65" viewBox="0 0 50.163 65"><defs><style>.a{fill:#78ffc6;}.b{fill:#36b37e;}.c{fill:#fff;}</style></defs><g transform="translate(-315 -1141)"><g transform="translate(315 1141)"><ellipse class="a" cx="22.37" cy="9.11" rx="22.37" ry="9.11" transform="translate(2.712 44.069)"/><path class="b" d="M25.081,349.42C12.617,349.42,0,345.362,0,337.6S12.617,325.78,25.081,325.78s25.081,4.061,25.081,11.822S37.543,349.42,25.081,349.42Zm0-18.221c-12.72,0-19.658,4.23-19.658,6.4s6.938,6.4,19.658,6.4,19.658-4.228,19.658-6.4S37.8,331.2,25.081,331.2Z" transform="translate(0 -284.42)"/><path class="c" d="M77.082,69.7,62.6,49.336a17.786,17.786,0,0,1,1.925-22.884h0a17.787,17.787,0,0,1,25.135,0h0a17.788,17.788,0,0,1,1.925,22.885Z" transform="translate(-51.785 -18.555)"/><path class="b" d="M58.314,53.862h0a2.713,2.713,0,0,1-2.21-1.141L41.625,32.357a20.494,20.494,0,1,1,33.4,0L60.521,52.723A2.7,2.7,0,0,1,58.314,53.862Zm.014-48.44A15.059,15.059,0,0,0,46.042,29.215L58.314,46.473,70.607,29.212A15.06,15.06,0,0,0,58.328,5.422Z" transform="translate(-33.016 -0.002)"/><circle class="a" cx="6.561" cy="6.561" r="6.561" transform="translate(18.745 13.918)"/><path class="b" d="M135.493,106.816a9.273,9.273,0,1,1,9.273-9.273A9.282,9.282,0,0,1,135.493,106.816Zm0-13.123a3.851,3.851,0,1,0,3.851,3.851A3.855,3.855,0,0,0,135.493,93.692Z" transform="translate(-110.196 -77.064)"/></g></g></svg>