<?xml version="1.0" encoding="UTF-8"?>
<svg width="33px" height="33px" viewBox="0 0 33 33" version="1.1" xmlns="http://www.w3.org/2000/svg" xmlns:xlink="http://www.w3.org/1999/xlink">
    <!-- Generator: sketchtool 55.2 (78181) - https://sketchapp.com -->
    <title>71D2BA1E-EA7F-4407-A7C8-0F17ED6195AA</title>
    <desc>Created with sketchtool.</desc>
    <g id="Page-1" stroke="none" stroke-width="1" fill="none" fill-rule="evenodd">
        <g id="Home" transform="translate(-243.000000, -6133.000000)" fill="#5E6C84" fill-rule="nonzero">
            <g id="Group-40" transform="translate(0.000000, 5891.687500)">
                <g id="Group-13">
                    <g id="Group-37" transform="translate(200.000000, 95.500000)">
                        <g id="Group-36" transform="translate(0.000000, 0.500000)">
                            <g id="facebook" transform="translate(0.707679, 47.500000)">
                                <g id="Group-39" transform="translate(0.000000, 98.500000)">
                                    <path d="M42.6666667,-7.10542736e-15 L74.6477895,-7.10542736e-15 L74.6477895,31.9811228 L42.6666667,31.9811228 L42.6666667,-7.10542736e-15 Z M46.9036491,23.706807 C49.0320702,25.0567018 51.5568421,25.8378947 54.2632982,25.8378947 C61.8667368,25.8378947 68.0303158,19.673614 68.0303158,12.0708772 C68.0303158,11.8810526 68.0263158,11.6926316 68.0190175,11.5047719 C68.2940351,11.2883509 69.9949474,9.92505263 70.4118596,9.04863158 C70.4118596,9.04863158 69.0305965,9.62266667 67.6787368,9.75789474 C67.6760702,9.75789474 67.6727719,9.75852632 67.6701053,9.75852632 C67.6701053,9.75852632 67.6727719,9.75719298 67.6774035,9.75389474 C67.8019649,9.67066667 69.5434386,8.48519298 69.7792281,7.07270175 C69.7792281,7.07270175 68.8022456,7.59417544 67.4343158,8.05038596 C67.2078596,8.12561404 66.970807,8.19957895 66.726386,8.26814035 C65.8446316,7.32708772 64.5912982,6.7397193 63.2000702,6.7397193 C60.5315088,6.7397193 58.3691228,8.90147368 58.3691228,11.568 C58.3691228,11.9442807 58.4124211,12.3105263 58.4943158,12.6621754 C58.1214035,12.6468772 52.4425965,12.3284912 48.5792982,7.65003509 C48.5792982,7.65003509 46.270386,10.8021053 49.9552281,14.0433684 C49.9552281,14.0433684 48.8350877,13.9987368 47.8687018,13.4213333 C47.8687018,13.4213333 47.5137544,17.24 51.6867368,18.2163509 C51.6867368,18.2163509 50.865614,18.5273684 49.5556491,18.305614 C49.5556491,18.305614 50.2882105,21.3910877 53.9957193,21.6794386 C53.9957193,21.6794386 51.064,24.3278596 46.9023158,23.7064561 L46.9036491,23.706807 Z" id="Combined-Shape"></path>
                                </g>
                            </g>
                        </g>
                    </g>
                </g>
            </g>
        </g>
    </g>
</svg>