<svg xmlns="http://www.w3.org/2000/svg" width="49.999" height="60" viewBox="0 0 49.999 60"><defs><style>.a{fill:#78ffc6;}.b{fill:#36b37e;}.c{fill:#fff;}</style></defs><path class="a" d="M43.83,234.67h0a22.5,22.5,0,0,1,22.5,22.5v2.5a5,5,0,0,1-5,5h-35a5,5,0,0,1-5-5v-2.5A22.5,22.5,0,0,1,43.83,234.67Z" transform="translate(-18.83 -207.17)"/><path class="b" d="M42.5,248.339H7.5a7.509,7.509,0,0,1-7.5-7.5v-2.5a25,25,0,1,1,50,0v2.5A7.507,7.507,0,0,1,42.5,248.339Zm-17.5-30a20.024,20.024,0,0,0-20,20v2.5a2.5,2.5,0,0,0,2.5,2.5h35a2.5,2.5,0,0,0,2.5-2.5v-2.5A20.022,20.022,0,0,0,25,218.339Z" transform="translate(0 -188.339)"/><path class="c" d="M119.16,21.33h0a12.5,12.5,0,0,1,12.5,12.5v5a12.5,12.5,0,0,1-12.5,12.5h0a12.5,12.5,0,0,1-12.5-12.5v-5A12.5,12.5,0,0,1,119.16,21.33Z" transform="translate(-94.161 -18.83)"/><path class="b" d="M100.33,35a15.015,15.015,0,0,1-15-15V15a15,15,0,1,1,30,0v5A15.015,15.015,0,0,1,100.33,35Zm0-30a10.01,10.01,0,0,0-10,10v5a10,10,0,1,0,20,0V15A10.009,10.009,0,0,0,100.33,5Z" transform="translate(-75.33)"/></svg>