<svg xmlns="http://www.w3.org/2000/svg" width="61.017" height="61.162" viewBox="0 0 61.017 61.162"><defs><style>.a{fill:#36b37e;stroke:#36b37e;}.b{fill:#78ffc6;stroke:#78ffc6;}</style></defs><g transform="translate(0.576 0.5)"><path class="a" d="M51.084,8.713a29.987,29.987,0,0,0-42.26-.007A29.434,29.434,0,0,0,0,29.722v.015A29.591,29.591,0,0,0,3.65,43.78L.082,60l16.407-3.732a30.041,30.041,0,0,0,13.468,3.2h.012a29.891,29.891,0,0,0,21.145-8.707,29.416,29.416,0,0,0-.03-42.048ZM29.97,54.785h-.011a25.32,25.32,0,0,1-12.032-3.049l-.776-.421L6.241,53.8l2.37-10.771-.457-.787A25.042,25.042,0,0,1,4.683,29.732a25.279,25.279,0,0,1,43.1-17.7,24.89,24.89,0,0,1,7.479,17.713A25.2,25.2,0,0,1,29.97,54.785Z"/><path class="b" d="M144.4,141.86h-1.314a2.524,2.524,0,0,0-1.828.854,7.652,7.652,0,0,0-2.4,5.7c0,3.362,2.456,6.611,2.8,7.066s4.743,7.575,11.711,10.314c5.791,2.276,6.97,1.823,8.227,1.71s4.056-1.652,4.628-3.247a5.676,5.676,0,0,0,.4-3.248c-.171-.285-.629-.456-1.314-.8s-4.045-2.023-4.675-2.251-1.085-.341-1.542.343-1.8,2.263-2.2,2.719-.8.513-1.486.171a18.97,18.97,0,0,1-5.49-3.4,21.067,21.067,0,0,1-3.853-4.8c-.4-.683-.042-1.054.3-1.395.308-.306.724-.724,1.068-1.123a4.666,4.666,0,0,0,.669-1.14,1.254,1.254,0,0,0-.057-1.2c-.171-.342-1.487-3.721-2.1-5.072h0C145.431,141.919,144.89,141.881,144.4,141.86Z" transform="translate(-122.587 -125.236)"/></g></svg>