<svg xmlns="http://www.w3.org/2000/svg" width="59.74" height="60" viewBox="0 0 59.74 60"><defs><style>.a{fill:#36b37e;}</style></defs><g transform="translate(-0.757)"><path class="a" d="M135.533,2.022l-.072-.066a7.476,7.476,0,0,0-10.562.478L98.182,31.684a2.579,2.579,0,0,0-.542.924L94.5,42.025a3.582,3.582,0,0,0,3.392,4.715h0a3.567,3.567,0,0,0,1.438-.3l9.1-3.979a2.577,2.577,0,0,0,.871-.624l26.717-29.25A7.485,7.485,0,0,0,135.533,2.022ZM100.517,40.285l1.843-5.526.155-.17,3.494,3.191-.155.17ZM132.2,9.105,109.489,33.971,106,30.78,128.708,5.914a2.316,2.316,0,0,1,3.274-.147l.072.066A2.319,2.319,0,0,1,132.2,9.105Z" transform="translate(-77.467)"/><path class="a" d="M52.882,50.517A2.58,2.58,0,0,0,50.3,53.1V75a6.568,6.568,0,0,1-6.56,6.56H12.477A6.568,6.568,0,0,1,5.916,75V43.986a6.568,6.568,0,0,1,6.56-6.56h22.63a2.58,2.58,0,0,0,0-5.159H12.477A11.733,11.733,0,0,0,.757,43.986V75a11.733,11.733,0,0,0,11.72,11.72H43.742A11.733,11.733,0,0,0,55.462,75V53.1A2.579,2.579,0,0,0,52.882,50.517Z" transform="translate(0 -26.717)"/></g></svg>