<svg xmlns="http://www.w3.org/2000/svg" width="46.262" height="60" viewBox="0 0 46.262 60"><defs><style>.a{fill:#36b37e;}</style></defs><g transform="translate(-58.614)"><path class="a" d="M297.787,0H286.928a4.6,4.6,0,0,0-4.593,4.593V15.452a4.6,4.6,0,0,0,4.593,4.593h10.859a4.6,4.6,0,0,0,4.593-4.593V4.593A4.6,4.6,0,0,0,297.787,0Zm1.078,15.452a1.079,1.079,0,0,1-1.077,1.077H286.928a1.079,1.079,0,0,1-1.077-1.077V4.593a1.079,1.079,0,0,1,1.077-1.077h10.859a1.079,1.079,0,0,1,1.077,1.077Z" transform="translate(-197.503)"/><path class="a" d="M91.872,24.434a4.981,4.981,0,0,0-2.337.579,5.008,5.008,0,0,0-6.642-1.584,5.011,5.011,0,0,0-5.534-1.818V20.045h.418a4.6,4.6,0,0,0,4.593-4.593V4.593A4.6,4.6,0,0,0,77.776,0H66.917a4.6,4.6,0,0,0-4.593,4.593V15.452a4.6,4.6,0,0,0,4.593,4.593h.418V30.934a5.043,5.043,0,0,0-.912-.724,4.975,4.975,0,0,0-3.588-.665,4.282,4.282,0,0,0-4.091,5.408l2.31,9.886c1.318,8.248,7.752,14.42,8.026,14.679A1.758,1.758,0,0,0,70.288,60H90.059a1.758,1.758,0,0,0,1.469-.792,32.478,32.478,0,0,0,5.354-17.885l0-11.877h0A5.018,5.018,0,0,0,91.872,24.434ZM71.027,56.484c-1.417-1.507-5.592-6.373-6.51-12.254q-.01-.065-.025-.129l-2.325-9.949a.942.942,0,0,1,.11-.806,1.029,1.029,0,0,1,.743-.318c.171-.016.242-.037.4-.046a1.921,1.921,0,0,1,1.147.213,1.486,1.486,0,0,1,.668.931l2,8.581a1.758,1.758,0,0,0,1.493,1.344l.141.018a1.758,1.758,0,0,0,1.976-1.744V14.39a1.5,1.5,0,0,1,2.993,0V30.873a1.758,1.758,0,1,0,3.516,0v-4.48a1.5,1.5,0,0,1,2.993,0v4.68a1.758,1.758,0,0,0,3.516,0V27.788a1.5,1.5,0,1,1,2.993,0V32.3a1.758,1.758,0,1,0,3.516,0V29.446a1.5,1.5,0,0,1,2.993,0l0,11.877a28.965,28.965,0,0,1-4.273,15.162H71.027ZM65.84,15.452V4.593a1.079,1.079,0,0,1,1.077-1.077H77.776a1.079,1.079,0,0,1,1.077,1.077V15.452a1.079,1.079,0,0,1-1.077,1.077h-.418V14.39a5.012,5.012,0,0,0-10.024,0v2.14h-.418A1.078,1.078,0,0,1,65.84,15.452Z"/></g></svg>